<?xml version="1.0" encoding="UTF-8"?><svg id="a" xmlns="http://www.w3.org/2000/svg" width="30" height="30" viewBox="0 0 30 30"><path d="m24.421,0h-2.956v2.796h-12.931V0h-2.956v2.796H0v27.204h30V2.796h-5.579V0ZM2.956,26.977v-14.584h24.089v14.584H2.956ZM27.044,5.819v3.552H2.956v-3.552h2.623v2.191h2.956v-2.191h12.931v2.191h2.956v-2.191h2.623Z"/><path d="m16.284,21.968h-3.058v-.306c0-.52.059-.943.177-1.268s.294-.621.527-.889.758-.74,1.573-1.416c.435-.354.652-.679.652-.974s-.087-.524-.262-.688-.439-.245-.793-.245c-.381,0-.696.126-.946.378s-.409.692-.479,1.32l-3.123-.386c.107-1.148.524-2.072,1.252-2.773s1.842-1.05,3.344-1.05c1.17,0,2.114.244,2.833.732.977.66,1.465,1.54,1.465,2.64,0,.456-.126.896-.378,1.32s-.767.942-1.545,1.553c-.542.429-.884.774-1.026,1.034s-.213.6-.213,1.018Zm-3.163.813h3.276v2.889h-3.276v-2.889Z"/></svg>