<?xml version="1.0" encoding="UTF-8"?><svg id="a" xmlns="http://www.w3.org/2000/svg" width="30" height="30" viewBox="0 0 30 30"><path d="m24.437,0h-2.956v2.796h-12.931V0h-2.956v2.796H.016v27.204h30V2.796h-5.579V0ZM2.972,26.977v-14.584h24.089v14.584H2.972ZM27.06,5.819v3.552H2.972v-3.552h2.623v2.191h2.956v-2.191h12.931v2.191h2.956v-2.191h2.623Z"/><polygon points="10.16 20.861 6.687 17.196 4.544 19.312 10.012 25.018 19.286 16.63 17.328 14.363 10.16 20.861"/><polygon points="10.395 19.308 12.894 16.839 16.376 20.512 23.551 14.005 25.836 16.651 16.201 25.366 10.395 19.308"/><path d="m23.529,14.363l1.958,2.267-9.273,8.388-5.468-5.705,2.143-2.116,3.473,3.665,7.167-6.499m.044-.714l-.379.344-6.805,6.17-3.136-3.31-.351-.37-.363.359-2.143,2.116-.351.346.341.356,5.468,5.705.336.351.36-.326,9.273-8.388.362-.328-.319-.37-1.958-2.267-.335-.388h0Z" fill="#fff"/></svg>