<?xml version="1.0" encoding="UTF-8"?><svg id="a" xmlns="http://www.w3.org/2000/svg" width="30" height="30" viewBox="0 0 30 30"><path d="m24.428,0h-2.956v2.796h-12.931V0h-2.956v2.796H.007v27.204h30V2.796h-5.579V0ZM2.963,26.977v-14.584h24.089v14.584H2.963ZM27.051,5.819v3.552H2.963v-3.552h2.623v2.191h2.956v-2.191h12.931v2.191h2.956v-2.191h2.623Z"/><polygon points="16.531 13.829 13.483 13.829 13.483 18.154 9.157 18.154 9.157 21.203 13.483 21.203 13.483 25.528 16.531 25.528 16.531 21.203 20.857 21.203 20.857 18.154 16.531 18.154 16.531 13.829"/></svg>