<?xml version="1.0" encoding="UTF-8" standalone="no"?>
<svg
   xmlns:dc="http://purl.org/dc/elements/1.1/"
   xmlns:cc="http://creativecommons.org/ns#"
   xmlns:rdf="http://www.w3.org/1999/02/22-rdf-syntax-ns#"
   xmlns:svg="http://www.w3.org/2000/svg"
   xmlns="http://www.w3.org/2000/svg"
   xmlns:sodipodi="http://sodipodi.sourceforge.net/DTD/sodipodi-0.dtd"
   xmlns:inkscape="http://www.inkscape.org/namespaces/inkscape"
   xml:space="preserve"
   viewBox="0 0 16 16"
   version="1.1"
   id="svg26"
   sodipodi:docname="event-submission-job-approved.svg"
   inkscape:version="1.0.1 (c497b03c, 2020-09-10)"><metadata
   id="metadata32"><rdf:RDF><cc:Work
       rdf:about=""><dc:format>image/svg+xml</dc:format><dc:type
         rdf:resource="http://purl.org/dc/dcmitype/StillImage" /><dc:title /></cc:Work></rdf:RDF></metadata>
    <defs
   id="defs30" />
    <sodipodi:namedview
   pagecolor="#ffffff"
   bordercolor="#666666"
   borderopacity="1"
   objecttolerance="10"
   gridtolerance="10"
   guidetolerance="10"
   inkscape:pageopacity="0"
   inkscape:pageshadow="2"
   inkscape:window-width="1752"
   inkscape:window-height="931"
   id="namedview28"
   showgrid="false"
   inkscape:zoom="32.478878"
   inkscape:cx="1.10321"
   inkscape:cy="8"
   inkscape:window-x="0"
   inkscape:window-y="25"
   inkscape:window-maximized="0"
   inkscape:current-layer="svg26"
   inkscape:document-rotation="0" />
    <g
   id="g46"
   transform="translate(0,1)"><path
   fill="#888"
   d="M 0,2 V 14 H 12.69 V 3.81 H 5.08 L 3.95,2 Z"
   id="path10"
   style="fill:#ffe680" />
        <path
   fill="#ffffff"
   d="M 2,0 H 13 V 11 H 2 Z"
   id="path12" />
        <path
   fill="#666666"
   d="m 12,1 v 9 H 3 V 1 h 9 M 13,0 H 2 v 11 h 11 z"
   id="path14"
   style="fill:#729fcf" />
        <path
   fill="#333333"
   d="m 4,2 h 7 V 3 H 4 Z"
   id="path16" />
        <path
   fill="#5599ff"
   d="M 4,4 H 7 V 7 H 4 Z"
   id="path18" />
        <path
   fill="#aaaaaa"
   d="M 4,8 H 7 V 9 H 4 Z m 4,0 h 3 V 9 H 8 Z M 8,6 h 3 V 7 H 8 Z M 8,4 h 3 V 5 H 8 Z"
   id="path20" />
        <path
   fill="#AAA"
   d="M 8.26,6.08 6.55,7.4 H 2.53 L 0,14 H 12.96 L 16,6.08 Z"
   id="path24"
   style="fill:#ffeeaa" /><path
   style="fill:none;stroke:#00e700;stroke-width:2.72405;stroke-linecap:butt;stroke-linejoin:miter;stroke-miterlimit:4;stroke-dasharray:none;stroke-opacity:1"
   d="M 2.0075171,7.9992058 6.2214667,11.934026 C 9.5909936,6.951862 11.084676,4.198992 13.485514,0.36804066"
   id="path875"
   sodipodi:nodetypes="ccc" /></g></svg>
