<?xml version="1.0" encoding="UTF-8"?><svg id="b" xmlns="http://www.w3.org/2000/svg" width="32" height="32" viewBox="0 0 32 32"><g id="c"><path id="d" d="m28.567,4.741h-3.433V1.185c0-.655-.512-1.185-1.144-1.185s-1.144.531-1.144,1.185v3.556h-13.688V1.185c0-.655-.512-1.185-1.144-1.185s-1.144.531-1.144,1.185v3.556h-3.433c-1.896,0-3.433,1.592-3.433,3.556v20.148c0,1.964,1.537,3.556,3.433,3.556h25.133c1.896,0,3.433-1.592,3.433-3.556V8.296c0-1.964-1.537-3.556-3.433-3.556M3.433,7.111h3.433v1.185c0,.655.512,1.185,1.144,1.185s1.144-.531,1.144-1.185v-1.185h13.688v1.185c0,.655.512,1.185,1.144,1.185s1.144-.531,1.144-1.185v-1.185h3.433c.632,0,1.144.531,1.144,1.185v2.37H2.289v-2.37c0-.655.512-1.185,1.144-1.185m25.133,22.519H3.433c-.632,0-1.144-.531-1.144-1.185v-15.407h27.422v15.407c0,.655-.512,1.185-1.144,1.185"/><path id="e" d="m22.865,21.333c.008-3.938-3.068-7.138-6.871-7.147-3.803-.009-6.893,3.177-6.902,7.116s3.068,7.138,6.871,7.147c2.695.006,5.146-1.617,6.272-4.153.16-.157.251-.375.251-.603v-.033c.252-.748.382-1.534.383-2.327h-.005Zm-2.621-3.187h-1.964c-.089-.643-.23-1.277-.42-1.896.956.379,1.784,1.038,2.384,1.896m-4.246-2.133c.34.664.561,1.387.651,2.133h-1.301c.09-.746.31-1.469.65-2.133m-5.036,6.831c-.141-.49-.214-.999-.215-1.511.001-.512.072-1.022.211-1.513h2.584c-.052.748-.056,1.326-.056,1.513s0,.77.056,1.515h-2.584m.795,1.673h1.963c.09.643.23,1.277.42,1.896-.955-.379-1.783-1.038-2.383-1.896m1.963-6.38h-1.963c.601-.855,1.429-1.512,2.383-1.89-.192.617-.332,1.249-.42,1.89m2.279,8.508c-.341-.664-.561-1.387-.65-2.133h1.3c-.089.746-.31,1.469-.65,2.133m.843-3.802h-1.692c-.033-.474-.053-.974-.053-1.515s.019-1.05.053-1.513h1.692c.033.474.053.974.053,1.513s-.019,1.05-.053,1.515m1.014,3.564c.192-.619.332-1.253.42-1.896h1.964c-.601.857-1.429,1.516-2.384,1.896m3.179-3.564h-2.585c.053-.749.057-1.326.057-1.515s0-.769-.057-1.513h2.585c.14.491.211,1.001.211,1.513-.002.513-.073,1.022-.211,1.515"/></g></svg>